<svg xmlns="http://www.w3.org/2000/svg" xmlns:xlink="http://www.w3.org/1999/xlink" width="259" height="259" viewBox="0 0 259 259"><defs><style>.a{fill:#16d34e;}.b,.c{fill:#fff;}.c{opacity:0.497;}.d{filter:url(#a);}</style><filter id="a" x="0" y="0" width="259" height="259" filterUnits="userSpaceOnUse"><feOffset dy="32" input="SourceAlpha"/><feGaussianBlur stdDeviation="27" result="b"/><feFlood flood-color="#16d34e" flood-opacity="0.22"/><feComposite operator="in" in2="b"/><feComposite in="SourceGraphic"/></filter></defs><g transform="translate(81 49)"><g class="d" transform="matrix(1, 0, 0, 1, -81, -49)"><rect class="a" width="97" height="97" rx="10" transform="translate(81 49)"/></g><g transform="translate(26 31)"><path class="b" d="M10.631,32.841,0,22l3-3,8,5L34,0l3,2L13.65,32.653a2,2,0,0,1-3.019.188Z"/><path class="c" d="M6,2H1A1,1,0,0,1,1,0H6A1,1,0,0,1,6,2Z" transform="translate(39 7)"/><path class="c" d="M13,2H1A1,1,0,0,1,1,0H13a1,1,0,0,1,0,2Z" transform="translate(32 16)"/><path class="c" d="M20,2H1A1,1,0,0,1,1,0H20a1,1,0,0,1,0,2Z" transform="translate(25 25)"/><path class="c" d="M27,2H1A1,1,0,0,1,1,0H27a1,1,0,0,1,0,2Z" transform="translate(18 34)"/></g></g></svg>