<svg xmlns="http://www.w3.org/2000/svg" width="83" height="83" viewBox="0 0 83 83"><defs><style>.a{fill:#fff;stroke:#e2e4e8;stroke-miterlimit:10;}.b{fill:#f2c57b;}.c{fill:#7bc0f2;}.d{fill:#6ba4ce;}.e{stroke:none;}.f{fill:none;}</style></defs><g class="a"><rect class="e" width="83" height="83" rx="10"/><rect class="f" x="0.5" y="0.5" width="82" height="82" rx="9.5"/></g><g transform="translate(17 24.5)"><path class="b" d="M0,5A5,5,0,0,1,5,0H45a5,5,0,0,1,5,5V15a2.5,2.5,0,0,1-5,0V5H5V30H22.5a2.5,2.5,0,0,1,0,5H5a5,5,0,0,1-5-5Z"/><path class="c" d="M0,2.5A2.5,2.5,0,0,1,2.5,0h10a2.5,2.5,0,0,1,0,5H2.5A2.5,2.5,0,0,1,0,2.5Z" transform="translate(10 10)"/><path class="c" d="M0,2.5A2.5,2.5,0,0,1,2.5,0H5A2.5,2.5,0,0,1,5,5H2.5A2.5,2.5,0,0,1,0,2.5Z" transform="translate(10 17.5)"/><path class="d" d="M.732.732a2.5,2.5,0,0,1,3.536,0l10,10a2.5,2.5,0,0,1-3.536,3.536l-10-10A2.5,2.5,0,0,1,.732.732Z" transform="translate(32.5 22.5)"/><path class="c" d="M0,2.5A2.5,2.5,0,0,1,2.5,0h10a2.5,2.5,0,0,1,0,5H5v7.5a2.5,2.5,0,0,1-5,0Z" transform="translate(30 20)"/></g></svg>