<svg xmlns="http://www.w3.org/2000/svg" xmlns:xlink="http://www.w3.org/1999/xlink" width="259" height="259" viewBox="0 0 259 259"><defs><style>.a{fill:#16d34e;}.b,.c,.d{fill:#fff;}.c{opacity:0.47;}.d{opacity:0.531;}.e{filter:url(#a);}</style><filter id="a" x="0" y="0" width="259" height="259" filterUnits="userSpaceOnUse"><feOffset dy="32" input="SourceAlpha"/><feGaussianBlur stdDeviation="27" result="b"/><feFlood flood-color="#16d34e" flood-opacity="0.22"/><feComposite operator="in" in2="b"/><feComposite in="SourceGraphic"/></filter></defs><g transform="translate(81 49)"><g class="e" transform="matrix(1, 0, 0, 1, -81, -49)"><rect class="a" width="97" height="97" rx="10" transform="translate(81 49)"/></g><g transform="translate(28.25 33.5)"><path class="b" d="M0,4.25A4.25,4.25,0,0,1,4.25,0h34A4.25,4.25,0,0,1,42.5,4.25v6.375a2.125,2.125,0,0,1-4.25,0V4.25h-34V25.5H25.5a2.125,2.125,0,0,1,0,4.25H4.25A4.25,4.25,0,0,1,0,25.5Z"/><path class="c" d="M5.5,11A5.5,5.5,0,1,1,11,5.5,5.506,5.506,0,0,1,5.5,11Zm0-6.6A1.1,1.1,0,1,0,6.6,5.5,1.1,1.1,0,0,0,5.5,4.4Z" transform="translate(31.75 17.5)"/><path class="d" d="M8.5,5.313A2.12,2.12,0,0,1,7.37,4.988l-.027-.017L7.3,4.948l-.111-.063c-.2-.108-.39-.2-.574-.279A3.693,3.693,0,0,0,5.312,4.25a3.693,3.693,0,0,0-1.306.356c-.234.1-.43.2-.574.279l-.109.062-.042.024-.029.017-1.128-1.8,1.126,1.8a2.125,2.125,0,0,1-2.257-3.6l.017-.012.027-.015.041-.025.041-.025c.067-.04.159-.092.272-.155C1.7.991,2.006.84,2.31.708a7.579,7.579,0,0,1,3-.708,7.579,7.579,0,0,1,3,.708c.3.133.613.284.918.449.113.063.2.115.272.155l.041.025.041.025.027.015.01.008A2.125,2.125,0,0,1,8.5,5.313Z" transform="translate(31.875 28.687)"/><path class="b" d="M0,2.125A2.125,2.125,0,0,1,2.125,0h12.75a2.125,2.125,0,0,1,0,4.25H2.125A2.125,2.125,0,0,1,0,2.125Z" transform="translate(8.5 8.5)"/><path class="b" d="M0,2.125A2.125,2.125,0,0,1,2.125,0h4.25a2.125,2.125,0,0,1,0,4.25H2.125A2.125,2.125,0,0,1,0,2.125Z" transform="translate(8.5 17)"/></g></g></svg>